# OBJ file converted from STL
# No centering applied - preserves original coordinates

v 0.100000 -0.070000 0.050000
v 0.072021 -0.070000 0.012021
v 0.073141 -0.070000 0.010785
v 0.076673 -0.070000 0.003317
v 0.076918 -0.070000 0.001666
v 0.077000 -0.070000 -0.000000
v 0.076918 -0.070000 -0.001666
v 0.076673 -0.070000 -0.003317
v 0.074135 -0.070000 0.009445
v 0.074993 -0.070000 0.008014
v 0.075706 -0.070000 0.006506
v 0.076268 -0.070000 0.004935
v 0.076268 -0.070000 -0.004935
v 0.075706 -0.070000 -0.006506
v 0.070785 -0.070000 0.013141
v 0.069445 -0.070000 0.014135
v 0.068014 -0.070000 0.014993
v 0.066506 -0.070000 0.015706
v 0.064935 -0.070000 0.016268
v 0.095315 -0.070000 0.071131
v 0.015706 -0.070000 0.066506
v 0.096985 -0.070000 0.067101
v 0.099810 -0.070000 0.054358
v 0.016268 -0.070000 0.064935
v 0.098296 -0.070000 0.062941
v 0.099240 -0.070000 0.058682
v 0.090958 -0.070000 0.078679
v 0.013141 -0.070000 0.070785
v 0.093301 -0.070000 0.075000
v 0.014135 -0.070000 0.069445
v 0.088302 -0.070000 0.082139
v 0.012021 -0.070000 0.072021
v 0.085355 -0.070000 0.085355
v 0.010785 -0.070000 0.073141
v 0.082139 -0.070000 0.088302
v 0.078679 -0.070000 0.090958
v 0.075000 -0.070000 0.093301
v 0.071131 -0.070000 0.095315
v 0.088302 0.070000 0.082139
v 0.093301 0.070000 0.075000
v 0.095315 0.070000 0.071131
v 0.096985 0.070000 0.067101
v 0.098296 0.070000 0.062941
v 0.099240 0.070000 0.058682
v 0.090958 0.070000 0.078679
v 0.085355 0.070000 0.085355
v 0.082139 0.070000 0.088302
v 0.078679 0.070000 0.090958
v 0.075000 0.070000 0.093301
v 0.099810 0.070000 0.054358
v 0.071131 0.070000 0.095315
v 0.067101 0.070000 0.096985
v 0.067101 -0.070000 0.096985
v 0.062941 0.070000 0.098296
v 0.062941 -0.070000 0.098296
v 0.058682 0.070000 0.099240
v 0.058682 -0.070000 0.099240
v 0.054358 0.070000 0.099810
v 0.054358 -0.070000 0.099810
v 0.050000 0.070000 0.100000
v 0.050000 -0.070000 0.100000
v 0.070785 0.070000 0.013141
v 0.069445 0.070000 0.014135
v 0.068014 0.070000 0.014993
v 0.066506 0.070000 0.015706
v 0.064935 0.070000 0.016268
v 0.063317 -0.070000 0.016673
v 0.063317 0.070000 0.016673
v 0.061666 -0.070000 0.016918
v 0.061666 0.070000 0.016918
v 0.060000 -0.070000 0.017000
v 0.060000 0.070000 0.017000
v 0.058334 -0.070000 0.016918
v 0.058334 0.070000 0.016918
v 0.056683 -0.070000 0.016673
v 0.056683 0.070000 0.016673
v 0.055065 -0.070000 0.016268
v 0.055065 0.070000 0.016268
v 0.053494 -0.070000 0.015706
v 0.053494 0.070000 0.015706
v 0.051986 -0.070000 0.014993
v 0.051986 0.070000 0.014993
v 0.050555 -0.070000 0.014135
v 0.050555 0.070000 0.014135
v 0.049215 -0.070000 0.013141
v 0.076918 0.070000 0.001666
v 0.076268 0.070000 0.004935
v 0.075706 0.070000 0.006506
v 0.076673 0.070000 0.003317
v 0.077000 0.070000 -0.000000
v 0.076918 0.070000 -0.001666
v 0.076673 0.070000 -0.003317
v 0.076268 0.070000 -0.004935
v 0.075706 0.070000 -0.006506
v 0.074993 0.070000 -0.008014
v 0.074993 -0.070000 -0.008014
v 0.074135 0.070000 0.009445
v 0.074993 0.070000 0.008014
v 0.073141 0.070000 0.010785
v 0.072021 0.070000 0.012021
v 0.074135 0.070000 -0.009445
v 0.074135 -0.070000 -0.009445
v 0.073141 0.070000 -0.010785
v 0.073141 -0.070000 -0.010785
v 0.072021 0.070000 -0.012021
v 0.072021 -0.070000 -0.012021
v 0.070785 0.070000 -0.013141
v 0.070785 -0.070000 -0.013141
v 0.069445 0.070000 -0.014135
v 0.069445 -0.070000 -0.014135
v 0.068014 0.070000 -0.014993
v 0.068014 -0.070000 -0.014993
v 0.066506 0.070000 -0.015706
v 0.066506 -0.070000 -0.015706
v 0.064935 0.070000 -0.016268
v 0.064935 -0.070000 -0.016268
v 0.063317 0.070000 -0.016673
v 0.063317 -0.070000 -0.016673
v 0.061666 0.070000 -0.016918
v 0.061666 -0.070000 -0.016918
v 0.060000 0.070000 -0.017000
v 0.060000 -0.070000 -0.017000
v 0.058334 0.070000 -0.016918
v 0.058334 -0.070000 -0.016918
v 0.056683 0.070000 -0.016673
v 0.056683 -0.070000 -0.016673
v 0.055065 0.070000 -0.016268
v 0.055065 -0.070000 -0.016268
v 0.053494 0.070000 -0.015706
v 0.053494 -0.070000 -0.015706
v 0.050555 0.070000 -0.014135
v 0.050555 -0.070000 -0.014135
v 0.051986 -0.070000 -0.014993
v 0.051986 0.070000 -0.014993
v 0.014993 -0.070000 0.068014
v 0.016673 -0.070000 0.063317
v 0.017000 -0.070000 0.060000
v 0.016918 -0.070000 0.058334
v 0.016268 -0.070000 0.055065
v 0.015706 -0.070000 0.053494
v 0.014993 -0.070000 0.051986
v 0.019712 -0.070000 0.016177
v 0.047979 -0.070000 0.012021
v 0.016918 -0.070000 0.061666
v 0.016673 -0.070000 0.056683
v 0.014135 -0.070000 0.050555
v 0.018031 -0.070000 0.018031
v 0.021202 -0.070000 0.014167
v 0.009445 -0.070000 0.074135
v 0.008014 -0.070000 0.074993
v 0.006506 -0.070000 0.075706
v -0.050000 -0.070000 0.100000
v 0.016177 -0.070000 0.019712
v 0.013141 -0.070000 0.049215
v 0.012021 -0.070000 0.047979
v 0.014167 -0.070000 0.021202
v 0.010785 -0.070000 0.046859
v 0.012021 -0.070000 0.022489
v 0.009445 -0.070000 0.045865
v 0.009758 -0.070000 0.023559
v 0.008014 -0.070000 0.045007
v 0.006506 -0.070000 0.044294
v 0.007402 -0.070000 0.024402
v 0.004935 -0.070000 0.043732
v 0.004975 -0.070000 0.025010
v 0.003317 -0.070000 0.043327
v 0.002499 -0.070000 0.025377
v 0.001666 -0.070000 0.043082
v 0.000000 -0.070000 0.043000
v 0.000000 -0.070000 0.025500
v 0.046859 -0.070000 0.010785
v 0.022489 -0.070000 0.012021
v 0.045865 -0.070000 0.009445
v 0.023559 -0.070000 0.009758
v 0.045007 -0.070000 0.008014
v 0.044294 -0.070000 0.006506
v 0.049215 -0.070000 -0.013141
v 0.014135 -0.070000 -0.050555
v 0.024402 -0.070000 0.007402
v 0.043732 -0.070000 0.004935
v 0.025010 -0.070000 0.004975
v 0.043327 -0.070000 0.003317
v 0.025377 -0.070000 0.002499
v 0.043082 -0.070000 0.001666
v 0.025500 -0.070000 -0.000000
v 0.043000 -0.070000 -0.000000
v 0.043082 -0.070000 -0.001666
v 0.025377 -0.070000 -0.002499
v 0.043327 -0.070000 -0.003317
v 0.025010 -0.070000 -0.004975
v 0.043732 -0.070000 -0.004935
v 0.024402 -0.070000 -0.007402
v 0.023559 -0.070000 -0.009758
v 0.022489 -0.070000 -0.012021
v 0.013141 -0.070000 -0.049215
v 0.044294 -0.070000 -0.006506
v 0.047979 -0.070000 -0.012021
v 0.046859 -0.070000 -0.010785
v 0.045007 -0.070000 -0.008014
v 0.045865 -0.070000 -0.009445
v 0.021202 -0.070000 -0.014167
v 0.019712 -0.070000 -0.016177
v 0.018031 -0.070000 -0.018031
v 0.016268 -0.070000 -0.055065
v 0.016673 -0.070000 -0.056683
v 0.015706 -0.070000 -0.053494
v 0.014993 -0.070000 -0.051986
v 0.016918 -0.070000 -0.058334
v 0.017000 -0.070000 -0.060000
v 0.016918 -0.070000 -0.061666
v 0.016673 -0.070000 -0.063317
v 0.016268 -0.070000 -0.064935
v 0.015706 -0.070000 -0.066506
v 0.014993 -0.070000 -0.068014
v 0.014135 -0.070000 -0.069445
v 0.016177 -0.070000 -0.019712
v 0.012021 -0.070000 -0.047979
v 0.014167 -0.070000 -0.021202
v 0.010785 -0.070000 -0.046859
v 0.012021 -0.070000 -0.022489
v 0.009445 -0.070000 -0.045865
v 0.009758 -0.070000 -0.023559
v 0.006506 -0.070000 -0.044294
v 0.007402 -0.070000 -0.024402
v 0.004935 -0.070000 -0.043732
v 0.004975 -0.070000 -0.025010
v 0.003317 -0.070000 -0.043327
v 0.002499 -0.070000 -0.025377
v 0.008014 -0.070000 -0.045007
v 0.001666 -0.070000 -0.043082
v 0.000000 -0.070000 -0.025500
v -0.000000 -0.070000 -0.043000
v 0.049215 0.070000 0.013141
v 0.014993 0.070000 0.068014
v 0.013141 0.070000 0.070785
v 0.014135 0.070000 0.069445
v 0.016268 0.070000 0.064935
v 0.016673 0.070000 0.063317
v 0.016918 0.070000 0.061666
v 0.017000 0.070000 0.060000
v 0.016918 0.070000 0.058334
v 0.016673 0.070000 0.056683
v 0.015706 0.070000 0.066506
v 0.010785 0.070000 0.073141
v 0.012021 0.070000 0.072021
v 0.009445 0.070000 0.074135
v 0.008014 0.070000 0.074993
v 0.006506 0.070000 0.075706
v 0.004935 -0.070000 0.076268
v 0.004935 0.070000 0.076268
v 0.003317 -0.070000 0.076673
v 0.003317 0.070000 0.076673
v 0.001666 -0.070000 0.076918
v 0.001666 0.070000 0.076918
v 0.000000 -0.070000 0.077000
v 0.016268 0.070000 0.055065
v 0.015706 0.070000 0.053494
v 0.014993 0.070000 0.051986
v 0.014135 0.070000 0.050555
v 0.013141 0.070000 0.049215
v 0.022489 0.070000 0.012021
v 0.021202 0.070000 0.014167
v 0.019712 0.070000 0.016177
v 0.018031 0.070000 0.018031
v 0.016177 0.070000 0.019712
v 0.014167 0.070000 0.021202
v 0.012021 0.070000 0.047979
v 0.010785 0.070000 0.046859
v 0.009445 0.070000 0.045865
v 0.008014 0.070000 0.045007
v 0.006506 0.070000 0.044294
v 0.004935 0.070000 0.043732
v 0.003317 0.070000 0.043327
v 0.001666 0.070000 0.043082
v 0.000000 0.070000 0.043000
v 0.009758 0.070000 0.023559
v 0.007402 0.070000 0.024402
v 0.012021 0.070000 0.022489
v 0.004975 0.070000 0.025010
v 0.002499 0.070000 0.025377
v 0.047979 0.070000 0.012021
v 0.046859 0.070000 0.010785
v 0.045865 0.070000 0.009445
v 0.045007 0.070000 0.008014
v 0.044294 0.070000 0.006506
v 0.043732 0.070000 -0.004935
v 0.044294 0.070000 -0.006506
v 0.045007 0.070000 -0.008014
v 0.043732 0.070000 0.004935
v 0.043327 0.070000 0.003317
v 0.043082 0.070000 0.001666
v 0.043000 0.070000 -0.000000
v 0.043082 0.070000 -0.001666
v 0.043327 0.070000 -0.003317
v 0.049215 0.070000 -0.013141
v 0.046859 0.070000 -0.010785
v 0.047979 0.070000 -0.012021
v 0.045865 0.070000 -0.009445
v 0.025377 0.070000 0.002499
v 0.025500 0.070000 -0.000000
v 0.025377 0.070000 -0.002499
v 0.025010 0.070000 -0.004975
v 0.024402 0.070000 0.007402
v 0.023559 0.070000 0.009758
v 0.025010 0.070000 0.004975
v 0.024402 0.070000 -0.007402
v 0.023559 0.070000 -0.009758
v 0.022489 0.070000 -0.012021
v 0.021202 0.070000 -0.014167
v 0.019712 0.070000 -0.016177
v 0.018031 0.070000 -0.018031
v 0.016177 0.070000 -0.019712
v 0.014167 0.070000 -0.021202
v 0.012021 0.070000 -0.022489
v 0.009758 0.070000 -0.023559
v 0.007402 0.070000 -0.024402
v 0.004975 0.070000 -0.025010
v 0.002499 0.070000 -0.025377
v 0.000000 0.070000 -0.025500
v 0.015706 0.070000 -0.053494
v 0.014993 0.070000 -0.051986
v 0.014135 0.070000 -0.050555
v 0.013141 0.070000 -0.049215
v 0.016268 0.070000 -0.055065
v 0.016673 0.070000 -0.056683
v 0.016918 0.070000 -0.058334
v 0.017000 0.070000 -0.060000
v 0.016918 0.070000 -0.061666
v 0.016673 0.070000 -0.063317
v 0.016268 0.070000 -0.064935
v 0.015706 0.070000 -0.066506
v 0.014993 0.070000 -0.068014
v 0.014135 0.070000 -0.069445
v 0.013141 0.070000 -0.070785
v 0.013141 -0.070000 -0.070785
v 0.012021 0.070000 -0.047979
v 0.010785 0.070000 -0.046859
v 0.009445 0.070000 -0.045865
v 0.008014 0.070000 -0.045007
v 0.006506 0.070000 -0.044294
v 0.004935 0.070000 -0.043732
v 0.003317 0.070000 -0.043327
v 0.001666 0.070000 -0.043082
v 0.012021 0.070000 -0.072021
v 0.012021 -0.070000 -0.072021
v 0.010785 0.070000 -0.073141
v 0.010785 -0.070000 -0.073141
v 0.009445 0.070000 -0.074135
v 0.009445 -0.070000 -0.074135
v 0.008014 0.070000 -0.074993
v 0.008014 -0.070000 -0.074993
v 0.100000 -0.070000 -0.500000
v 0.100000 0.070000 0.050000
v 0.006506 -0.070000 -0.075706
v 0.004935 -0.070000 -0.076268
v 0.003317 -0.070000 -0.076673
v 0.001666 -0.070000 -0.076918
v -0.000000 -0.070000 -0.077000
v 0.006506 0.070000 -0.075706
v 0.004935 0.070000 -0.076268
v 0.003317 0.070000 -0.076673
v 0.001666 0.070000 -0.076918
v -0.000000 0.070000 -0.077000
v -0.050000 0.070000 0.100000
v 0.000000 0.070000 0.077000
v 0.000000 0.070000 0.025500
v -0.000000 0.070000 -0.043000
v 0.100000 0.070000 -0.500000
v -0.001666 -0.070000 0.076918
v -0.003317 -0.070000 0.076673
v -0.004935 -0.070000 0.076268
v -0.006506 -0.070000 0.075706
v -0.008014 -0.070000 0.074993
v -0.009445 -0.070000 0.074135
v -0.010785 -0.070000 0.073141
v -0.012021 -0.070000 0.072021
v -0.001666 -0.070000 0.043082
v -0.003317 -0.070000 0.043327
v -0.002499 -0.070000 0.025377
v -0.004935 -0.070000 0.043732
v -0.004975 -0.070000 0.025010
v -0.006506 -0.070000 0.044294
v -0.007402 -0.070000 0.024402
v -0.008014 -0.070000 0.045007
v -0.009758 -0.070000 0.023559
v -0.009445 -0.070000 0.045865
v -0.010785 -0.070000 0.046859
v -0.012021 -0.070000 0.022489
v -0.012021 -0.070000 0.047979
v -0.014167 -0.070000 0.021202
v -0.013141 -0.070000 0.049215
v -0.016177 -0.070000 0.019712
v -0.014135 -0.070000 0.050555
v -0.018031 -0.070000 0.018031
v -0.013141 -0.070000 0.070785
v -0.014135 -0.070000 0.069445
v -0.014993 -0.070000 0.068014
v -0.015706 -0.070000 0.066506
v -0.016268 -0.070000 0.064935
v -0.064935 -0.070000 0.016268
v -0.015706 -0.070000 0.053494
v -0.051986 -0.070000 0.014993
v -0.014993 -0.070000 0.051986
v -0.016673 -0.070000 0.056683
v -0.055065 -0.070000 0.016268
v -0.016268 -0.070000 0.055065
v -0.017000 -0.070000 0.060000
v -0.058334 -0.070000 0.016918
v -0.016918 -0.070000 0.058334
v -0.016673 -0.070000 0.063317
v -0.016918 -0.070000 0.061666
v -0.060000 -0.070000 0.017000
v -0.063317 -0.070000 0.016673
v -0.050555 -0.070000 0.014135
v -0.019712 -0.070000 0.016177
v -0.047979 -0.070000 0.012021
v -0.021202 -0.070000 0.014167
v -0.053494 -0.070000 0.015706
v -0.056683 -0.070000 0.016673
v -0.049215 -0.070000 0.013141
v -0.061666 -0.070000 0.016918
v -0.004975 -0.070000 -0.025010
v -0.003317 -0.070000 -0.043327
v -0.002499 -0.070000 -0.025377
v -0.007402 -0.070000 -0.024402
v -0.004935 -0.070000 -0.043732
v -0.009758 -0.070000 -0.023559
v -0.006506 -0.070000 -0.044294
v -0.012021 -0.070000 -0.022489
v -0.009445 -0.070000 -0.045865
v -0.014167 -0.070000 -0.021202
v -0.010785 -0.070000 -0.046859
v -0.016177 -0.070000 -0.019712
v -0.012021 -0.070000 -0.047979
v -0.018031 -0.070000 -0.018031
v -0.013141 -0.070000 -0.049215
v -0.043732 -0.070000 -0.004935
v -0.001666 -0.070000 -0.043082
v -0.008014 -0.070000 -0.045007
v -0.046859 -0.070000 0.010785
v -0.022489 -0.070000 0.012021
v -0.045865 -0.070000 0.009445
v -0.023559 -0.070000 0.009758
v -0.044294 -0.070000 0.006506
v -0.024402 -0.070000 0.007402
v -0.043732 -0.070000 0.004935
v -0.025010 -0.070000 0.004975
v -0.043327 -0.070000 0.003317
v -0.025377 -0.070000 0.002499
v -0.025377 -0.070000 -0.002499
v -0.043327 -0.070000 -0.003317
v -0.025010 -0.070000 -0.004975
v -0.024402 -0.070000 -0.007402
v -0.023559 -0.070000 -0.009758
v -0.022489 -0.070000 -0.012021
v -0.043082 -0.070000 0.001666
v -0.043000 -0.070000 0.000000
v -0.025500 -0.070000 0.000000
v -0.043082 -0.070000 -0.001666
v -0.019712 -0.070000 -0.016177
v -0.021202 -0.070000 -0.014167
v -0.044294 -0.070000 -0.006506
v -0.045007 -0.070000 -0.008014
v -0.045865 -0.070000 -0.009445
v -0.046859 -0.070000 -0.010785
v -0.047979 -0.070000 -0.012021
v -0.049215 -0.070000 -0.013141
v -0.045007 -0.070000 0.008014
v -0.050555 -0.070000 -0.014135
v -0.014135 -0.070000 -0.050555
v -0.014993 -0.070000 -0.051986
v -0.015706 -0.070000 -0.053494
v -0.016268 -0.070000 -0.055065
v -0.016673 -0.070000 -0.056683
v -0.016918 -0.070000 -0.058334
v -0.016918 -0.070000 -0.061666
v -0.016673 -0.070000 -0.063317
v -0.016268 -0.070000 -0.064935
v -0.014993 -0.070000 -0.068014
v -0.014135 -0.070000 -0.069445
v -0.015706 -0.070000 -0.066506
v -0.017000 -0.070000 -0.060000
v -0.001666 0.070000 0.076918
v -0.003317 0.070000 0.076673
v -0.004935 0.070000 0.076268
v -0.006506 0.070000 0.075706
v -0.008014 0.070000 0.074993
v -0.009445 0.070000 0.074135
v -0.010785 0.070000 0.073141
v -0.012021 0.070000 0.072021
v -0.013141 0.070000 0.070785
v -0.014135 0.070000 0.069445
v -0.014993 0.070000 0.068014
v -0.015706 0.070000 0.066506
v -0.016268 0.070000 0.064935
v -0.016673 0.070000 0.063317
v -0.016918 0.070000 0.061666
v -0.017000 0.070000 0.060000
v -0.016918 0.070000 0.058334
v -0.001666 0.070000 0.043082
v -0.003317 0.070000 0.043327
v -0.004935 0.070000 0.043732
v -0.006506 0.070000 0.044294
v -0.009445 0.070000 0.045865
v -0.010785 0.070000 0.046859
v -0.012021 0.070000 0.047979
v -0.008014 0.070000 0.045007
v -0.002499 0.070000 0.025377
v -0.004975 0.070000 0.025010
v -0.007402 0.070000 0.024402
v -0.009758 0.070000 0.023559
v -0.014993 0.070000 0.051986
v -0.015706 0.070000 0.053494
v -0.013141 0.070000 0.049215
v -0.014135 0.070000 0.050555
v -0.016268 0.070000 0.055065
v -0.016673 0.070000 0.056683
v -0.012021 0.070000 0.022489
v -0.014167 0.070000 0.021202
v -0.016177 0.070000 0.019712
v -0.018031 0.070000 0.018031
v -0.019712 0.070000 0.016177
v -0.021202 0.070000 0.014167
v -0.049215 0.070000 0.013141
v -0.002499 0.070000 -0.025377
v -0.004975 0.070000 -0.025010
v -0.007402 0.070000 -0.024402
v -0.009758 0.070000 -0.023559
v -0.012021 0.070000 -0.022489
v -0.022489 0.070000 0.012021
v -0.023559 0.070000 0.009758
v -0.024402 0.070000 0.007402
v -0.025010 0.070000 -0.004975
v -0.024402 0.070000 -0.007402
v -0.016177 0.070000 -0.019712
v -0.018031 0.070000 -0.018031
v -0.014167 0.070000 -0.021202
v -0.021202 0.070000 -0.014167
v -0.019712 0.070000 -0.016177
v -0.023559 0.070000 -0.009758
v -0.022489 0.070000 -0.012021
v -0.001666 0.070000 -0.043082
v -0.003317 0.070000 -0.043327
v -0.004935 0.070000 -0.043732
v -0.006506 0.070000 -0.044294
v -0.008014 0.070000 -0.045007
v -0.009445 0.070000 -0.045865
v -0.010785 0.070000 -0.046859
v -0.012021 0.070000 -0.047979
v -0.009445 0.070000 -0.074135
v -0.009445 -0.070000 -0.074135
v -0.008014 -0.070000 -0.074993
v -0.010785 0.070000 -0.073141
v -0.010785 -0.070000 -0.073141
v -0.012021 0.070000 -0.072021
v -0.012021 -0.070000 -0.072021
v -0.013141 0.070000 -0.049215
v -0.014135 0.070000 -0.050555
v -0.014993 0.070000 -0.051986
v -0.015706 0.070000 -0.053494
v -0.016268 0.070000 -0.055065
v -0.016673 0.070000 -0.056683
v -0.016918 0.070000 -0.058334
v -0.017000 0.070000 -0.060000
v -0.016918 0.070000 -0.061666
v -0.016673 0.070000 -0.063317
v -0.014993 0.070000 -0.068014
v -0.015706 0.070000 -0.066506
v -0.013141 0.070000 -0.070785
v -0.013141 -0.070000 -0.070785
v -0.014135 0.070000 -0.069445
v -0.016268 0.070000 -0.064935
v -0.025010 0.070000 0.004975
v -0.025377 0.070000 0.002499
v -0.025500 0.070000 0.000000
v -0.025377 0.070000 -0.002499
v -0.043327 0.070000 0.003317
v -0.043082 0.070000 0.001666
v -0.043000 0.070000 0.000000
v -0.043082 0.070000 -0.001666
v -0.043327 0.070000 -0.003317
v -0.043732 0.070000 -0.004935
v -0.045007 0.070000 0.008014
v -0.045865 0.070000 0.009445
v -0.043732 0.070000 0.004935
v -0.044294 0.070000 0.006506
v -0.046859 0.070000 0.010785
v -0.047979 0.070000 0.012021
v -0.044294 0.070000 -0.006506
v -0.045007 0.070000 -0.008014
v -0.045865 0.070000 -0.009445
v -0.046859 0.070000 -0.010785
v -0.047979 0.070000 -0.012021
v -0.049215 0.070000 -0.013141
v -0.054358 -0.070000 0.099810
v -0.058682 -0.070000 0.099240
v -0.062941 -0.070000 0.098296
v -0.067101 -0.070000 0.096985
v -0.071131 -0.070000 0.095315
v -0.066506 -0.070000 0.015706
v -0.075000 -0.070000 0.093301
v -0.069445 -0.070000 0.014135
v -0.078679 -0.070000 0.090958
v -0.070785 -0.070000 0.013141
v -0.068014 -0.070000 0.014993
v -0.072021 -0.070000 0.012021
v -0.082139 -0.070000 0.088302
v -0.085355 -0.070000 0.085355
v -0.073141 -0.070000 0.010785
v -0.088302 -0.070000 0.082139
v -0.090958 -0.070000 0.078679
v -0.093301 -0.070000 0.075000
v -0.095315 -0.070000 0.071131
v -0.100000 -0.070000 0.050000
v -0.074135 -0.070000 0.009445
v -0.074993 -0.070000 0.008014
v -0.075706 -0.070000 0.006506
v -0.076268 -0.070000 0.004935
v -0.076673 -0.070000 0.003317
v -0.076918 -0.070000 0.001666
v -0.077000 -0.070000 0.000000
v -0.096985 -0.070000 0.067101
v -0.098296 -0.070000 0.062941
v -0.099240 -0.070000 0.058682
v -0.099810 -0.070000 0.054358
v -0.054358 0.070000 0.099810
v -0.058682 0.070000 0.099240
v -0.062941 0.070000 0.098296
v -0.067101 0.070000 0.096985
v -0.071131 0.070000 0.095315
v -0.075000 0.070000 0.093301
v -0.050555 0.070000 0.014135
v -0.051986 0.070000 0.014993
v -0.053494 0.070000 0.015706
v -0.055065 0.070000 0.016268
v -0.056683 0.070000 0.016673
v -0.058334 0.070000 0.016918
v -0.060000 0.070000 0.017000
v -0.061666 0.070000 0.016918
v -0.063317 0.070000 0.016673
v -0.064935 0.070000 0.016268
v -0.066506 0.070000 0.015706
v -0.068014 0.070000 0.014993
v -0.069445 0.070000 0.014135
v -0.070785 0.070000 0.013141
v -0.078679 0.070000 0.090958
v -0.082139 0.070000 0.088302
v -0.085355 0.070000 0.085355
v -0.088302 0.070000 0.082139
v -0.090958 0.070000 0.078679
v -0.093301 0.070000 0.075000
v -0.095315 0.070000 0.071131
v -0.096985 0.070000 0.067101
v -0.098296 0.070000 0.062941
v -0.099240 0.070000 0.058682
v -0.099810 0.070000 0.054358
v -0.100000 0.070000 0.050000
v -0.050555 0.070000 -0.014135
v -0.051986 0.070000 -0.014993
v -0.051986 -0.070000 -0.014993
v -0.053494 0.070000 -0.015706
v -0.053494 -0.070000 -0.015706
v -0.055065 0.070000 -0.016268
v -0.055065 -0.070000 -0.016268
v -0.056683 0.070000 -0.016673
v -0.056683 -0.070000 -0.016673
v -0.058334 0.070000 -0.016918
v -0.058334 -0.070000 -0.016918
v -0.060000 0.070000 -0.017000
v -0.060000 -0.070000 -0.017000
v -0.061666 0.070000 -0.016918
v -0.061666 -0.070000 -0.016918
v -0.072021 0.070000 0.012021
v -0.073141 0.070000 0.010785
v -0.074135 0.070000 0.009445
v -0.074993 0.070000 -0.008014
v -0.074993 -0.070000 -0.008014
v -0.074135 -0.070000 -0.009445
v -0.063317 0.070000 -0.016673
v -0.063317 -0.070000 -0.016673
v -0.064935 0.070000 -0.016268
v -0.064935 -0.070000 -0.016268
v -0.066506 0.070000 -0.015706
v -0.066506 -0.070000 -0.015706
v -0.068014 0.070000 -0.014993
v -0.068014 -0.070000 -0.014993
v -0.069445 0.070000 -0.014135
v -0.069445 -0.070000 -0.014135
v -0.070785 0.070000 -0.013141
v -0.070785 -0.070000 -0.013141
v -0.072021 0.070000 -0.012021
v -0.072021 -0.070000 -0.012021
v -0.073141 0.070000 -0.010785
v -0.073141 -0.070000 -0.010785
v -0.074135 0.070000 -0.009445
v -0.074993 0.070000 0.008014
v -0.075706 0.070000 0.006506
v -0.076268 0.070000 0.004935
v -0.076673 0.070000 0.003317
v -0.076673 0.070000 -0.003317
v -0.076673 -0.070000 -0.003317
v -0.076268 -0.070000 -0.004935
v -0.076918 0.070000 0.001666
v -0.077000 0.070000 0.000000
v -0.076918 -0.070000 -0.001666
v -0.076918 0.070000 -0.001666
v -0.076268 0.070000 -0.004935
v -0.075706 -0.070000 -0.006506
v -0.075706 0.070000 -0.006506
v -0.001666 -0.070000 -0.076918
v -0.100000 -0.070000 -0.500000
v -0.003317 -0.070000 -0.076673
v -0.004935 -0.070000 -0.076268
v -0.006506 -0.070000 -0.075706
v -0.001666 0.070000 -0.076918
v -0.003317 0.070000 -0.076673
v -0.004935 0.070000 -0.076268
v -0.006506 0.070000 -0.075706
v -0.008014 0.070000 -0.074993
v -0.100000 0.070000 -0.500000
v 0.000000 -0.070000 -0.600000
v 0.000000 0.070000 -0.600000

f 1 2 3
f 1 4 5
f 1 5 6
f 1 6 7
f 1 7 8
f 1 9 10
f 1 10 11
f 1 11 12
f 1 12 4
f 1 3 9
f 1 8 13
f 1 13 14
f 1 15 2
f 1 16 15
f 1 17 16
f 1 18 17
f 1 19 18
f 20 21 22
f 23 24 1
f 22 24 25
f 25 24 26
f 26 24 23
f 27 28 29
f 29 30 20
f 31 32 27
f 33 34 31
f 35 34 33
f 36 34 35
f 37 34 36
f 38 34 37
f 1 24 19
f 39 31 27
f 40 29 20
f 41 20 22
f 42 22 25
f 43 25 26
f 44 26 23
f 45 27 29
f 46 33 31
f 47 35 33
f 48 36 35
f 49 37 36
f 50 23 1
f 51 38 37
f 52 53 38
f 54 55 53
f 56 57 55
f 58 59 57
f 60 61 59
f 62 15 16
f 63 16 17
f 64 17 18
f 65 18 19
f 66 19 67
f 68 67 69
f 70 69 71
f 72 71 73
f 74 73 75
f 76 75 77
f 78 77 79
f 80 79 81
f 82 81 83
f 84 83 85
f 86 5 4
f 87 12 11
f 88 11 10
f 89 4 12
f 90 6 5
f 91 7 6
f 92 8 7
f 93 13 8
f 94 14 13
f 95 96 14
f 97 9 3
f 98 10 9
f 99 3 2
f 100 2 15
f 101 102 96
f 103 104 102
f 105 106 104
f 107 108 106
f 109 110 108
f 111 112 110
f 113 114 112
f 115 116 114
f 117 118 116
f 119 120 118
f 121 122 120
f 123 124 122
f 125 126 124
f 127 128 126
f 129 130 128
f 131 132 133
f 134 133 130
f 55 34 53
f 57 34 55
f 53 34 38
f 59 34 57
f 61 34 59
f 20 30 135
f 20 135 21
f 27 32 28
f 29 28 30
f 22 21 24
f 31 34 32
f 19 136 67
f 67 136 69
f 69 137 71
f 71 138 73
f 73 138 75
f 75 139 77
f 77 140 79
f 79 140 81
f 81 141 83
f 83 142 85
f 85 142 143
f 19 24 136
f 69 136 144
f 69 144 137
f 71 137 138
f 75 138 145
f 75 145 139
f 77 139 140
f 81 140 141
f 83 141 146
f 83 146 147
f 83 147 142
f 143 142 148
f 61 149 34
f 61 150 149
f 61 151 150
f 152 151 61
f 153 146 154
f 153 154 155
f 147 146 153
f 153 155 156
f 156 155 157
f 158 157 159
f 160 159 161
f 160 161 162
f 163 162 164
f 165 164 166
f 167 166 168
f 167 168 169
f 156 157 158
f 158 159 160
f 160 162 163
f 163 164 165
f 165 166 167
f 167 169 170
f 143 148 171
f 171 172 173
f 173 174 175
f 175 174 176
f 177 178 132
f 176 179 180
f 180 181 182
f 182 183 184
f 184 185 186
f 186 185 187
f 187 188 189
f 189 190 191
f 184 183 185
f 187 185 188
f 173 172 174
f 171 148 172
f 176 174 179
f 180 179 181
f 182 181 183
f 189 188 190
f 191 190 192
f 191 192 193
f 191 193 194
f 191 195 196
f 197 195 177
f 198 195 197
f 199 195 200
f 200 195 198
f 196 195 199
f 191 194 201
f 191 201 202
f 191 202 203
f 132 204 205
f 132 206 204
f 132 207 206
f 132 178 207
f 177 195 178
f 132 208 209
f 132 209 210
f 132 205 208
f 132 210 211
f 132 211 212
f 132 212 213
f 132 213 214
f 132 214 215
f 191 203 195
f 195 203 216
f 217 216 218
f 219 218 220
f 221 220 222
f 223 222 224
f 225 224 226
f 227 226 228
f 195 216 217
f 217 218 219
f 219 220 221
f 221 222 229
f 229 222 223
f 223 224 225
f 225 226 227
f 230 228 231
f 227 228 230
f 230 231 232
f 233 85 143
f 234 135 30
f 235 28 32
f 236 30 28
f 237 24 21
f 238 136 24
f 239 144 136
f 240 137 144
f 241 138 137
f 242 145 138
f 243 21 135
f 244 34 149
f 245 32 34
f 246 149 150
f 247 150 151
f 248 151 249
f 250 249 251
f 252 251 253
f 254 253 255
f 256 139 145
f 257 140 139
f 258 141 140
f 259 146 141
f 260 154 146
f 261 172 148
f 262 148 142
f 263 142 147
f 264 147 153
f 265 153 156
f 266 156 158
f 267 155 154
f 268 157 155
f 269 159 157
f 270 161 159
f 271 162 161
f 272 164 162
f 273 166 164
f 274 168 166
f 275 169 168
f 276 160 163
f 277 163 165
f 278 158 160
f 279 165 167
f 280 167 170
f 281 143 171
f 282 171 173
f 283 173 175
f 284 175 176
f 285 176 180
f 286 191 196
f 287 196 199
f 288 199 200
f 289 180 182
f 290 182 184
f 291 184 186
f 292 186 187
f 293 187 189
f 294 189 191
f 295 177 132
f 296 198 197
f 297 197 177
f 298 200 198
f 299 183 181
f 300 185 183
f 301 188 185
f 302 190 188
f 303 179 174
f 304 174 172
f 305 181 179
f 306 192 190
f 307 193 192
f 308 194 193
f 309 201 194
f 310 202 201
f 311 203 202
f 312 216 203
f 313 218 216
f 314 220 218
f 315 222 220
f 316 224 222
f 317 226 224
f 318 228 226
f 319 231 228
f 320 206 207
f 321 207 178
f 322 178 195
f 323 195 217
f 324 204 206
f 325 205 204
f 326 208 205
f 327 209 208
f 328 210 209
f 329 211 210
f 330 212 211
f 331 213 212
f 332 214 213
f 333 215 214
f 334 335 215
f 336 217 219
f 337 219 221
f 338 221 229
f 339 229 223
f 340 223 225
f 341 225 227
f 342 227 230
f 343 230 232
f 344 345 335
f 346 347 345
f 348 349 347
f 350 351 349
f 1 14 352
f 352 14 96
f 352 96 102
f 352 102 104
f 352 104 106
f 352 106 108
f 352 108 110
f 352 110 112
f 352 112 114
f 352 114 116
f 352 116 118
f 352 118 120
f 352 120 122
f 124 352 122
f 126 352 124
f 128 352 126
f 130 352 128
f 133 352 130
f 132 352 133
f 132 215 352
f 353 1 352
f 352 215 335
f 352 335 345
f 352 345 347
f 352 347 349
f 352 349 351
f 352 351 354
f 352 354 355
f 352 355 356
f 352 356 357
f 352 357 358
f 359 354 351
f 360 355 354
f 361 356 355
f 362 357 356
f 363 358 357
f 45 39 27
f 42 41 22
f 41 40 20
f 43 42 25
f 44 43 26
f 40 45 29
f 39 46 31
f 46 47 33
f 47 48 35
f 48 49 36
f 50 44 23
f 353 50 1
f 49 51 37
f 51 52 38
f 52 54 53
f 54 56 55
f 56 58 57
f 58 60 59
f 62 100 15
f 63 62 16
f 64 63 17
f 65 64 18
f 66 65 19
f 68 66 67
f 70 68 69
f 72 70 71
f 74 72 73
f 76 74 75
f 78 76 77
f 80 78 79
f 82 80 81
f 84 82 83
f 98 88 10
f 89 86 4
f 88 87 11
f 87 89 12
f 86 90 5
f 90 91 6
f 91 92 7
f 92 93 8
f 93 94 13
f 94 95 14
f 99 97 3
f 97 98 9
f 100 99 2
f 95 101 96
f 101 103 102
f 103 105 104
f 105 107 106
f 107 109 108
f 109 111 110
f 111 113 112
f 113 115 114
f 115 117 116
f 117 119 118
f 119 121 120
f 121 123 122
f 123 125 124
f 125 127 126
f 127 129 128
f 134 131 133
f 131 295 132
f 129 134 130
f 353 99 100
f 353 86 89
f 353 90 86
f 353 91 90
f 353 92 91
f 353 98 97
f 353 88 98
f 353 87 88
f 353 89 87
f 353 97 99
f 353 93 92
f 353 94 93
f 353 100 62
f 353 62 63
f 353 63 64
f 353 64 65
f 353 65 66
f 41 42 243
f 50 353 237
f 42 43 237
f 43 44 237
f 44 50 237
f 45 40 235
f 40 41 236
f 39 45 245
f 46 39 244
f 47 46 244
f 48 47 244
f 49 48 244
f 51 49 244
f 353 66 237
f 233 84 85
f 60 364 61
f 234 243 135
f 236 234 30
f 235 236 28
f 243 237 21
f 238 239 136
f 237 238 24
f 239 240 144
f 240 241 137
f 241 242 138
f 244 245 34
f 246 244 149
f 245 235 32
f 247 246 150
f 248 247 151
f 250 248 249
f 252 250 251
f 254 252 253
f 365 254 255
f 242 256 145
f 256 257 139
f 257 258 140
f 258 259 141
f 259 260 146
f 260 267 154
f 262 261 148
f 263 262 142
f 265 264 153
f 264 263 147
f 266 265 156
f 278 266 158
f 267 268 155
f 268 269 157
f 269 270 159
f 270 271 161
f 271 272 162
f 272 273 164
f 273 274 166
f 274 275 168
f 277 276 163
f 276 278 160
f 279 277 165
f 280 279 167
f 366 280 170
f 281 233 143
f 282 281 171
f 283 282 173
f 284 283 175
f 285 284 176
f 289 285 180
f 298 288 200
f 287 286 196
f 288 287 199
f 290 289 182
f 291 290 184
f 292 291 186
f 293 292 187
f 294 293 189
f 286 294 191
f 295 297 177
f 297 296 197
f 296 298 198
f 305 299 181
f 299 300 183
f 300 301 185
f 301 302 188
f 304 303 174
f 261 304 172
f 303 305 179
f 302 306 190
f 306 307 192
f 307 308 193
f 308 309 194
f 309 310 201
f 310 311 202
f 311 312 203
f 312 313 216
f 313 314 218
f 314 315 220
f 315 316 222
f 316 317 224
f 317 318 226
f 318 319 228
f 321 320 207
f 322 321 178
f 323 322 195
f 320 324 206
f 324 325 204
f 325 326 205
f 326 327 208
f 327 328 209
f 328 329 210
f 329 330 211
f 330 331 212
f 331 332 213
f 332 333 214
f 333 334 215
f 334 344 335
f 337 336 219
f 338 337 221
f 336 323 217
f 339 338 229
f 340 339 223
f 341 340 225
f 342 341 227
f 343 342 230
f 367 343 232
f 344 346 345
f 346 348 347
f 348 350 349
f 54 52 244
f 56 54 244
f 52 51 244
f 58 56 244
f 60 58 244
f 41 234 236
f 41 243 234
f 45 235 245
f 40 236 235
f 42 237 243
f 39 245 244
f 66 68 238
f 68 70 238
f 70 72 240
f 72 74 241
f 74 76 241
f 76 78 256
f 78 80 257
f 80 82 257
f 82 84 258
f 84 233 263
f 233 281 263
f 66 238 237
f 70 239 238
f 70 240 239
f 72 241 240
f 76 242 241
f 76 256 242
f 78 257 256
f 82 258 257
f 84 259 258
f 84 264 259
f 84 263 264
f 281 262 263
f 60 244 246
f 60 246 247
f 60 247 248
f 364 60 248
f 265 260 259
f 265 267 260
f 264 265 259
f 265 266 267
f 266 268 267
f 278 269 268
f 276 270 269
f 276 271 270
f 277 272 271
f 279 273 272
f 280 274 273
f 280 275 274
f 266 278 268
f 278 276 269
f 276 277 271
f 277 279 272
f 279 280 273
f 280 366 275
f 281 282 262
f 282 283 261
f 283 284 304
f 284 285 304
f 295 131 322
f 285 289 303
f 289 290 305
f 290 291 299
f 291 292 300
f 292 293 300
f 293 294 301
f 294 286 302
f 291 300 299
f 293 301 300
f 283 304 261
f 282 261 262
f 285 303 304
f 289 305 303
f 290 299 305
f 294 302 301
f 286 306 302
f 286 307 306
f 286 308 307
f 286 287 323
f 297 295 323
f 296 297 323
f 288 298 323
f 298 296 323
f 287 288 323
f 286 309 308
f 286 310 309
f 286 311 310
f 131 325 324
f 131 324 320
f 131 320 321
f 131 321 322
f 295 322 323
f 131 327 326
f 131 328 327
f 131 326 325
f 131 329 328
f 131 330 329
f 131 331 330
f 131 332 331
f 131 333 332
f 286 323 311
f 323 312 311
f 336 313 312
f 337 314 313
f 338 315 314
f 340 316 315
f 341 317 316
f 342 318 317
f 323 336 312
f 336 337 313
f 337 338 314
f 338 339 315
f 339 340 315
f 340 341 316
f 341 342 317
f 343 319 318
f 342 343 318
f 343 367 319
f 353 368 94
f 368 95 94
f 368 101 95
f 368 103 101
f 368 105 103
f 368 107 105
f 368 109 107
f 368 111 109
f 368 113 111
f 368 115 113
f 368 117 115
f 368 119 117
f 368 121 119
f 123 121 368
f 125 123 368
f 127 125 368
f 129 127 368
f 134 129 368
f 131 134 368
f 131 368 333
f 350 359 351
f 359 360 354
f 360 361 355
f 361 362 356
f 362 363 357
f 368 334 333
f 368 344 334
f 368 346 344
f 368 348 346
f 368 350 348
f 368 359 350
f 368 360 359
f 368 361 360
f 368 362 361
f 368 363 362
f 152 249 151
f 152 251 249
f 152 253 251
f 152 255 253
f 152 369 255
f 152 370 369
f 152 371 370
f 152 372 371
f 152 373 372
f 152 374 373
f 152 375 374
f 152 376 375
f 377 170 169
f 378 379 377
f 380 381 378
f 382 383 380
f 384 385 382
f 386 385 384
f 387 388 386
f 389 390 387
f 377 379 170
f 378 381 379
f 380 383 381
f 382 385 383
f 386 388 385
f 387 390 388
f 391 392 389
f 393 392 391
f 389 392 390
f 393 394 392
f 152 395 376
f 152 396 395
f 152 397 396
f 152 398 397
f 152 399 398
f 152 400 399
f 401 402 403
f 403 402 393
f 404 405 406
f 406 405 401
f 407 408 409
f 409 408 404
f 399 400 410
f 411 412 407
f 410 413 411
f 393 414 394
f 394 414 415
f 415 416 417
f 393 402 414
f 401 418 402
f 404 419 405
f 401 405 418
f 415 420 416
f 415 414 420
f 404 408 419
f 407 412 408
f 411 421 412
f 411 413 421
f 410 400 413
f 422 423 424
f 425 426 422
f 427 428 425
f 429 430 427
f 431 432 429
f 433 434 431
f 435 436 433
f 435 437 436
f 424 232 231
f 424 438 232
f 424 423 438
f 422 426 423
f 425 428 426
f 427 439 428
f 427 430 439
f 429 432 430
f 431 434 432
f 433 436 434
f 417 440 441
f 441 442 443
f 443 444 445
f 445 446 447
f 447 448 449
f 450 451 452
f 452 437 453
f 454 437 455
f 453 437 454
f 445 444 446
f 447 446 448
f 449 448 456
f 449 457 458
f 458 459 450
f 449 456 457
f 458 457 459
f 450 459 451
f 452 451 437
f 460 437 435
f 461 437 460
f 455 437 461
f 436 437 462
f 436 462 463
f 436 463 464
f 436 464 465
f 436 465 466
f 436 466 467
f 417 416 440
f 441 440 442
f 443 442 468
f 443 468 444
f 436 467 469
f 436 469 470
f 470 469 471
f 471 469 472
f 472 469 473
f 473 469 474
f 474 469 475
f 476 469 477
f 477 469 478
f 479 469 480
f 481 469 479
f 478 469 481
f 475 469 482
f 482 469 476
f 365 255 369
f 483 369 370
f 484 370 371
f 485 371 372
f 486 372 373
f 487 373 374
f 488 374 375
f 489 375 376
f 490 376 395
f 364 152 61
f 491 395 396
f 492 396 397
f 493 397 398
f 494 398 399
f 495 399 410
f 496 410 411
f 497 411 407
f 498 407 409
f 499 409 404
f 500 377 169
f 501 378 377
f 502 380 378
f 503 382 380
f 504 386 384
f 505 387 386
f 506 389 387
f 507 384 382
f 366 170 379
f 508 379 381
f 509 381 383
f 510 383 385
f 511 385 388
f 512 403 393
f 513 401 403
f 514 391 389
f 515 393 391
f 516 406 401
f 517 404 406
f 518 388 390
f 519 390 392
f 520 392 394
f 521 394 415
f 522 415 417
f 523 417 441
f 524 420 414
f 525 424 231
f 526 422 424
f 527 425 422
f 528 427 425
f 529 429 427
f 530 441 443
f 531 443 445
f 532 445 447
f 533 452 453
f 534 453 454
f 535 433 431
f 536 435 433
f 537 431 429
f 538 461 460
f 539 460 435
f 540 454 455
f 541 455 461
f 367 232 438
f 542 438 423
f 543 423 426
f 544 426 428
f 545 428 439
f 546 439 430
f 547 430 432
f 548 432 434
f 549 434 436
f 550 551 552
f 553 554 551
f 555 556 554
f 557 436 470
f 558 470 471
f 559 471 472
f 560 472 473
f 561 473 474
f 562 474 475
f 563 475 482
f 564 482 476
f 565 476 477
f 566 477 478
f 567 479 480
f 568 481 479
f 569 570 556
f 571 480 570
f 572 478 481
f 573 447 449
f 574 449 458
f 575 458 450
f 576 450 452
f 577 448 446
f 578 456 448
f 579 457 456
f 580 459 457
f 581 451 459
f 582 437 451
f 583 468 442
f 584 442 440
f 585 446 444
f 586 444 468
f 587 440 416
f 588 416 420
f 589 462 437
f 590 463 462
f 591 464 463
f 592 465 464
f 593 466 465
f 594 467 466
f 595 400 152
f 596 400 595
f 597 400 596
f 598 400 597
f 599 600 598
f 601 602 599
f 603 604 601
f 598 600 400
f 599 605 600
f 599 602 605
f 601 604 602
f 603 606 604
f 607 606 603
f 608 609 607
f 610 609 608
f 611 609 610
f 607 609 606
f 612 609 611
f 613 609 612
f 614 615 609
f 614 616 615
f 614 617 616
f 614 618 617
f 614 619 618
f 614 620 619
f 614 621 620
f 622 609 613
f 623 609 622
f 624 609 623
f 625 609 624
f 614 609 625
f 626 595 152
f 627 596 595
f 628 597 596
f 629 598 597
f 630 599 598
f 631 601 599
f 632 414 402
f 633 402 418
f 634 418 405
f 635 405 419
f 636 419 408
f 637 408 412
f 638 412 421
f 639 421 413
f 640 413 400
f 641 400 600
f 642 600 605
f 643 605 602
f 644 602 604
f 645 604 606
f 646 603 601
f 647 607 603
f 648 608 607
f 649 610 608
f 650 611 610
f 651 612 611
f 652 613 612
f 653 622 613
f 654 623 622
f 655 624 623
f 656 625 624
f 657 614 625
f 658 469 467
f 659 660 469
f 661 662 660
f 663 664 662
f 665 666 664
f 667 668 666
f 669 670 668
f 671 672 670
f 673 606 609
f 674 609 615
f 675 615 616
f 676 677 678
f 679 680 672
f 681 682 680
f 683 684 682
f 685 686 684
f 687 688 686
f 689 690 688
f 691 692 690
f 693 694 692
f 695 678 694
f 696 616 617
f 697 617 618
f 698 618 619
f 699 619 620
f 700 701 702
f 703 620 621
f 704 621 705
f 706 705 701
f 707 702 708
f 709 708 677
f 710 711 358
f 712 711 710
f 713 711 712
f 714 711 713
f 552 711 714
f 551 711 552
f 554 711 551
f 570 711 556
f 556 711 554
f 480 711 570
f 715 710 358
f 716 712 710
f 717 713 712
f 718 714 713
f 719 552 714
f 711 621 614
f 480 469 711
f 711 469 660
f 711 660 662
f 711 662 664
f 711 664 666
f 711 666 668
f 711 668 670
f 672 711 670
f 680 711 672
f 682 711 680
f 684 711 682
f 686 711 684
f 688 711 686
f 690 711 688
f 692 711 690
f 678 711 694
f 711 702 701
f 711 708 702
f 677 708 711
f 677 711 678
f 711 705 621
f 711 701 705
f 694 711 692
f 483 365 369
f 484 483 370
f 485 484 371
f 486 485 372
f 487 486 373
f 488 487 374
f 489 488 375
f 490 489 376
f 491 490 395
f 492 491 396
f 493 492 397
f 494 493 398
f 495 494 399
f 496 495 410
f 497 496 411
f 498 497 407
f 499 498 409
f 517 499 404
f 275 500 169
f 500 501 377
f 501 502 378
f 502 503 380
f 504 505 386
f 506 514 389
f 505 506 387
f 503 507 382
f 507 504 384
f 508 366 379
f 509 508 381
f 510 509 383
f 511 510 385
f 518 511 388
f 515 512 393
f 512 513 403
f 514 515 391
f 516 517 406
f 513 516 401
f 519 518 390
f 520 519 392
f 521 520 394
f 522 521 415
f 523 522 417
f 530 523 441
f 524 588 420
f 319 525 231
f 525 526 424
f 526 527 422
f 527 528 425
f 528 529 427
f 531 530 443
f 532 531 445
f 573 532 447
f 534 533 453
f 540 534 454
f 535 536 433
f 536 539 435
f 529 537 429
f 537 535 431
f 538 541 461
f 539 538 460
f 541 540 455
f 542 367 438
f 543 542 423
f 544 543 426
f 545 544 428
f 546 545 439
f 547 546 430
f 548 547 432
f 549 548 434
f 719 550 552
f 550 553 551
f 555 569 556
f 553 555 554
f 557 549 436
f 558 557 470
f 559 558 471
f 560 559 472
f 561 560 473
f 562 561 474
f 563 562 475
f 564 563 482
f 565 564 476
f 566 565 477
f 571 567 480
f 567 568 479
f 569 571 570
f 572 566 478
f 568 572 481
f 574 573 449
f 575 574 458
f 576 575 450
f 533 576 452
f 585 577 446
f 577 578 448
f 578 579 456
f 579 580 457
f 580 581 459
f 581 582 451
f 583 586 468
f 587 584 440
f 584 583 442
f 586 585 444
f 588 587 416
f 582 589 437
f 589 590 462
f 590 591 463
f 591 592 464
f 592 593 465
f 593 594 466
f 594 658 467
f 364 248 250
f 364 250 252
f 364 252 254
f 364 254 365
f 364 365 483
f 364 483 484
f 364 484 485
f 364 485 486
f 364 486 487
f 364 487 488
f 364 488 489
f 364 489 490
f 500 275 366
f 501 500 508
f 502 501 509
f 503 502 510
f 507 503 511
f 504 507 511
f 505 504 518
f 506 505 519
f 500 366 508
f 501 508 509
f 502 509 510
f 503 510 511
f 504 511 518
f 505 518 519
f 514 506 520
f 515 514 520
f 506 519 520
f 515 520 521
f 364 490 491
f 364 491 492
f 364 492 493
f 364 493 494
f 364 494 495
f 364 495 641
f 513 512 633
f 512 515 633
f 517 516 635
f 516 513 635
f 498 499 637
f 499 517 637
f 495 496 641
f 497 498 638
f 496 497 640
f 515 521 632
f 521 522 632
f 522 523 588
f 515 632 633
f 513 633 634
f 517 635 636
f 513 634 635
f 522 588 524
f 522 524 632
f 517 636 637
f 498 637 638
f 497 638 639
f 497 639 640
f 496 640 641
f 526 525 543
f 527 526 544
f 528 527 545
f 529 528 547
f 537 529 548
f 535 537 549
f 536 535 557
f 536 557 582
f 525 319 367
f 525 367 542
f 525 542 543
f 526 543 544
f 527 544 545
f 528 545 546
f 528 546 547
f 529 547 548
f 537 548 549
f 535 549 557
f 523 530 587
f 530 531 584
f 531 532 586
f 532 573 585
f 573 574 577
f 576 533 581
f 533 534 582
f 540 541 582
f 534 540 582
f 532 585 586
f 573 577 585
f 574 578 577
f 574 575 579
f 575 576 580
f 574 579 578
f 575 580 579
f 576 581 580
f 533 582 581
f 539 536 582
f 538 539 582
f 541 538 582
f 557 589 582
f 557 590 589
f 557 591 590
f 557 592 591
f 557 593 592
f 557 594 593
f 523 587 588
f 530 584 587
f 531 583 584
f 531 586 583
f 557 658 594
f 557 558 658
f 558 559 658
f 559 560 658
f 560 561 658
f 561 562 658
f 562 563 658
f 565 566 658
f 566 572 658
f 567 571 658
f 568 567 658
f 572 568 658
f 563 564 658
f 564 565 658
f 364 626 152
f 626 627 595
f 627 628 596
f 628 629 597
f 629 630 598
f 630 631 599
f 632 524 414
f 633 632 402
f 634 633 418
f 635 634 405
f 636 635 419
f 637 636 408
f 638 637 412
f 639 638 421
f 640 639 413
f 641 640 400
f 642 641 600
f 643 642 605
f 644 643 602
f 645 644 604
f 631 646 601
f 646 647 603
f 647 648 607
f 648 649 608
f 649 650 610
f 650 651 611
f 651 652 612
f 652 653 613
f 653 654 622
f 654 655 623
f 655 656 624
f 656 657 625
f 658 659 469
f 659 661 660
f 661 663 662
f 663 665 664
f 665 667 666
f 667 669 668
f 669 671 670
f 671 679 672
f 673 645 606
f 674 673 609
f 675 674 615
f 696 675 616
f 695 676 678
f 679 681 680
f 681 683 682
f 685 687 686
f 683 685 684
f 687 689 688
f 689 691 690
f 691 693 692
f 693 695 694
f 697 696 617
f 698 697 618
f 699 698 619
f 703 699 620
f 704 703 621
f 706 704 705
f 700 706 701
f 707 700 702
f 709 707 708
f 676 709 677
f 626 364 641
f 627 626 641
f 628 627 641
f 629 628 641
f 630 629 642
f 631 630 644
f 646 631 645
f 629 641 642
f 630 642 643
f 630 643 644
f 631 644 645
f 646 645 673
f 647 646 673
f 648 647 674
f 649 648 674
f 650 649 674
f 647 673 674
f 651 650 674
f 652 651 674
f 657 674 675
f 657 675 696
f 657 696 697
f 657 697 698
f 657 698 699
f 657 699 703
f 657 703 704
f 653 652 674
f 654 653 674
f 655 654 674
f 656 655 674
f 657 656 674
f 363 715 358
f 715 716 710
f 716 717 712
f 717 718 713
f 718 719 714
f 715 363 720
f 716 715 720
f 717 716 720
f 718 717 720
f 719 718 720
f 550 719 720
f 553 550 720
f 569 555 720
f 555 553 720
f 571 569 720
f 657 720 614
f 720 657 704
f 571 720 658
f 720 659 658
f 720 661 659
f 720 663 661
f 720 665 663
f 720 667 665
f 720 669 667
f 671 669 720
f 679 671 720
f 681 679 720
f 683 681 720
f 685 683 720
f 687 685 720
f 689 687 720
f 691 689 720
f 695 693 720
f 720 700 707
f 720 707 709
f 676 720 709
f 676 695 720
f 720 704 706
f 720 706 700
f 693 691 720
f 352 358 721
f 368 352 721
f 368 353 352
f 368 722 363
f 722 368 721
f 358 711 721
f 720 711 614
f 722 721 711
f 363 722 720
f 720 722 711
